<svg width="85" height="85" viewBox="0 0 85 85" fill="none" xmlns="http://www.w3.org/2000/svg">
<path fill-rule="evenodd" clip-rule="evenodd" d="M24.9406 6.81463C14.0271 9.34655 5.91176 19.1169 5.91176 30.8088C5.91176 32.4413 4.58837 33.7646 2.95588 33.7646C1.32339 33.7646 0 32.4413 0 30.8088C0 13.9239 13.6593 0.264648 30.5441 0.264648C31.609 0.264648 32.5916 0.837473 33.1163 1.76416C33.641 2.69086 33.6267 3.82814 33.0788 4.74131L28.9406 11.6384C28.1007 13.0382 26.285 13.4921 24.8852 12.6522C23.4853 11.8123 23.0314 9.99667 23.8713 8.59681L24.9406 6.81463ZM81.7794 51.4999C83.4119 51.4999 84.7353 52.8233 84.7353 54.4558C84.7353 71.3407 71.076 84.9999 54.1912 84.9999C53.1263 84.9999 52.1437 84.4271 51.619 83.5004C51.0943 82.5737 51.1086 81.4364 51.6565 80.5233L55.7947 73.6262C56.6346 72.2264 58.4503 71.7724 59.8501 72.6123C61.25 73.4522 61.7039 75.2679 60.864 76.6678L59.7947 78.45C70.7082 75.918 78.8235 66.1476 78.8235 54.4558C78.8235 52.8233 80.1469 51.4999 81.7794 51.4999Z" fill="#34CAA5"/>
<path d="M59.7105 27.6951L44.8917 19.6945C43.3153 18.8668 41.4628 18.8668 39.8864 19.6945L25.0675 27.6951C24.0034 28.2862 23.3335 29.4292 23.3335 30.7298C23.3335 32.0303 24.0034 33.1733 25.0675 33.7645L39.8864 41.7651C40.6746 42.1986 41.5417 42.3956 42.4088 42.3956C43.2758 42.3956 44.1428 42.1986 44.9311 41.7651L59.7499 33.7645C60.814 33.1733 61.4841 32.0303 61.4841 30.7298C61.4446 29.4292 60.7746 28.2862 59.7105 27.6951Z" fill="#34CAA5"/>
<path opacity="0.4" d="M37.4027 44.4844L23.6086 37.5873C22.5445 37.075 21.3227 37.1144 20.298 37.745C19.2733 38.3756 18.6821 39.4397 18.6821 40.622V53.6673C18.6821 55.9138 19.9434 57.9632 21.9534 58.9485L35.7475 65.8456C36.2204 66.082 36.7327 66.2003 37.2845 66.2003C37.9151 66.2003 38.5063 66.0426 39.0581 65.6879C40.0828 65.0573 40.674 63.9932 40.674 62.8109V49.7656C40.674 47.5191 39.4521 45.5091 37.4027 44.4844Z" fill="#34CAA5"/>
<path opacity="0.4" d="M64.4002 37.745C63.3755 37.1144 62.1538 37.075 61.0897 37.5873L47.2955 44.4844C45.2855 45.5091 44.0244 47.5191 44.0244 49.7656V62.8109C44.0244 63.9932 44.6155 65.0573 45.6402 65.6879C46.192 66.0426 46.7832 66.2003 47.4138 66.2003C47.9261 66.2003 48.4385 66.082 48.9509 65.8456L62.745 58.9485C64.755 57.9238 66.0161 55.9138 66.0161 53.6673V40.622C66.0161 39.4397 65.4249 38.3756 64.4002 37.745Z" fill="#34CAA5"/>
</svg>
