<svg width="110" height="110" viewBox="0 0 110 110" fill="none" xmlns="http://www.w3.org/2000/svg">
<path d="M14.5293 34.1L55.0001 57.5207L95.1959 34.2373" stroke="#B7B0B0" stroke-width="5" stroke-linecap="round" stroke-linejoin="round"/>
<path d="M55 99.0457V57.4749" stroke="#B7B0B0" stroke-width="5" stroke-linecap="round" stroke-linejoin="round"/>
<path d="M10.9541 42.0292C10.9541 35.7042 15.4915 28.0043 21.0374 24.9334L45.5123 11.3208C50.7373 8.43328 59.3081 8.43328 64.5331 11.3208L89.0083 24.9334C94.5541 28.0043 99.0915 35.7042 99.0915 42.0292V67.9251C99.0915 74.2501 94.5541 81.95 89.0083 85.0209L64.5331 98.6335C59.3081 101.521 50.7373 101.521 45.5123 98.6335L21.0374 85.0209C15.4915 81.95 10.9541 74.2501 10.9541 67.9251V64.1667" stroke="#B7B0B0" stroke-width="5" stroke-linecap="round" stroke-linejoin="round"/>
<path d="M77.9167 60.6832V43.9084L50.0958 27.8208L45.2834 25.0706L34.4209 18.7915" stroke="#B7B0B0" stroke-width="5" stroke-linecap="round" stroke-linejoin="round"/>
</svg>
