<svg width="84" height="84" viewBox="0 0 84 84" fill="none" xmlns="http://www.w3.org/2000/svg">
<path opacity="0.4" d="M68.9674 14.748L44.1774 1.3876C41.5762 -0.0312196 38.4232 -0.0312196 35.7826 1.3876L10.9927 14.748C9.17978 15.7333 8.07617 17.6646 8.07617 19.7928C8.07617 21.9211 9.17978 23.8521 10.9927 24.8374L35.7826 38.1981C37.0832 38.9075 38.5415 39.2623 39.9603 39.2623C41.3791 39.2623 42.8373 38.9075 44.1379 38.1981L68.9279 24.8374C70.7409 23.8521 71.8444 21.9211 71.8444 19.7928C71.9232 17.6646 70.7803 15.7333 68.9674 14.748Z" fill="#34CAA5"/>
<path opacity="0.4" d="M31.7242 42.8484L8.6683 31.3008C6.89477 30.3943 4.84538 30.5125 3.15067 31.5372C1.45597 32.5619 0.470703 34.375 0.470703 36.3456V58.1402C0.470703 61.9237 2.55946 65.3131 5.94888 67.0078L29.0048 78.5162C29.793 78.9104 30.6601 79.1073 31.5272 79.1073C32.5519 79.1073 33.5766 78.8315 34.4831 78.2403C36.1778 77.2156 37.163 75.4026 37.163 73.432V51.6374C37.2025 47.9327 35.1136 44.5431 31.7242 42.8484Z" fill="#34CAA5"/>
<path opacity="0.4" d="M79.5296 36.3859V54.4757C79.4902 54.4363 79.4508 54.3576 79.4114 54.3182C79.4114 54.2788 79.372 54.2392 79.3326 54.1998C79.175 53.9633 78.9779 53.7269 78.7808 53.5299C78.7414 53.4905 78.702 53.4117 78.6626 53.3723C75.4702 49.8253 70.7802 47.6181 65.6173 47.6181C60.6514 47.6181 56.119 49.6675 52.8873 52.9781C49.7737 56.1704 47.882 60.5452 47.882 65.3534C47.882 68.664 48.8279 71.817 50.4437 74.497C51.1137 75.6399 51.9415 76.6645 52.8479 77.6104L50.9956 78.5563C50.2073 78.9504 49.3402 79.1475 48.4732 79.1475C47.4484 79.1475 46.4238 78.8718 45.4779 78.2806C43.8226 77.2559 42.7979 75.4428 42.7979 73.4722V51.7169C42.7979 47.9333 44.8867 44.5439 48.2761 42.8492L71.3321 31.341C73.1056 30.4346 75.155 30.5134 76.8497 31.5775C78.505 32.6022 79.5296 34.4153 79.5296 36.3859Z" fill="#34CAA5"/>
<path d="M79.333 54.1993C76.1012 50.2187 71.1747 47.6965 65.6176 47.6965C61.44 47.6965 57.5776 49.1547 54.5429 51.5983C50.4441 54.83 47.8823 59.8354 47.8823 65.4318C47.8823 68.7424 48.8282 71.8954 50.4441 74.5754C51.5082 76.3489 52.8482 77.8859 54.4247 79.147H54.4641C57.4988 81.6694 61.4006 83.1671 65.6176 83.1671C70.1106 83.1671 74.1699 81.5118 77.2835 78.753C78.6629 77.5707 79.8453 76.1519 80.7912 74.5754C82.4071 71.8954 83.3529 68.7424 83.3529 65.4318C83.3529 61.1754 81.8553 57.234 79.333 54.1993ZM74.5247 63.2248L65.0658 71.9741C64.514 72.4864 63.7653 72.7624 63.0559 72.7624C62.3071 72.7624 61.5582 72.4864 60.9671 71.8952L56.5923 67.5205C55.4493 66.3776 55.4493 64.4858 56.5923 63.3429C57.7352 62.1999 59.627 62.1999 60.7699 63.3429L63.1347 65.7077L70.5046 58.8893C71.687 57.7858 73.5787 57.8648 74.6823 59.0471C75.8252 60.2689 75.7465 62.1212 74.5247 63.2248Z" fill="#34CAA5"/>
</svg>
