<svg width="196" height="196" viewBox="0 0 196 196" fill="none" xmlns="http://www.w3.org/2000/svg">
<path d="M9 95.7174C9 61.2949 9 44.0791 19.4308 33.3899C29.8527 22.6916 46.6381 22.6917 80.2 22.6917H115.8C149.362 22.6917 166.147 22.6916 176.569 33.3899C187 44.0791 187 61.2949 187 95.7174V113.974C187 148.396 187 165.612 176.569 176.301C166.147 187 149.362 187 115.8 187H80.2C46.6381 187 29.8527 187 19.4308 176.301C9 165.612 9 148.396 9 113.974V95.7174Z" stroke="black" stroke-width="17.37"/>
<path d="M53.4987 22.6923V9M142.499 22.6923V9M13.4487 68.3334H182.549" stroke="black" stroke-width="17.37" stroke-linecap="round"/>
<path d="M151.402 141.36C151.402 143.781 150.464 146.102 148.795 147.814C147.126 149.526 144.862 150.488 142.502 150.488C140.142 150.488 137.878 149.526 136.209 147.814C134.54 146.102 133.602 143.781 133.602 141.36C133.602 138.939 134.54 136.617 136.209 134.905C137.878 133.193 140.142 132.231 142.502 132.231C144.862 132.231 147.126 133.193 148.795 134.905C150.464 136.617 151.402 138.939 151.402 141.36ZM151.402 104.847C151.402 107.268 150.464 109.589 148.795 111.301C147.126 113.013 144.862 113.975 142.502 113.975C140.142 113.975 137.878 113.013 136.209 111.301C134.54 109.589 133.602 107.268 133.602 104.847C133.602 102.426 134.54 100.104 136.209 98.3921C137.878 96.6802 140.142 95.7185 142.502 95.7185C144.862 95.7185 147.126 96.6802 148.795 98.3921C150.464 100.104 151.402 102.426 151.402 104.847ZM106.902 141.36C106.902 143.781 105.964 146.102 104.295 147.814C102.626 149.526 100.362 150.488 98.0021 150.488C95.6416 150.488 93.3779 149.526 91.7088 147.814C90.0397 146.102 89.1021 143.781 89.1021 141.36C89.1021 138.939 90.0397 136.617 91.7088 134.905C93.3779 133.193 95.6416 132.231 98.0021 132.231C100.362 132.231 102.626 133.193 104.295 134.905C105.964 136.617 106.902 138.939 106.902 141.36ZM106.902 104.847C106.902 107.268 105.964 109.589 104.295 111.301C102.626 113.013 100.362 113.975 98.0021 113.975C95.6416 113.975 93.3779 113.013 91.7088 111.301C90.0397 109.589 89.1021 107.268 89.1021 104.847C89.1021 102.426 90.0397 100.104 91.7088 98.3921C93.3779 96.6802 95.6416 95.7185 98.0021 95.7185C100.362 95.7185 102.626 96.6802 104.295 98.3921C105.964 100.104 106.902 102.426 106.902 104.847ZM62.4021 141.36C62.4021 143.781 61.4644 146.102 59.7953 147.814C58.1262 149.526 55.8625 150.488 53.5021 150.488C51.1416 150.488 48.8779 149.526 47.2088 147.814C45.5397 146.102 44.6021 143.781 44.6021 141.36C44.6021 138.939 45.5397 136.617 47.2088 134.905C48.8779 133.193 51.1416 132.231 53.5021 132.231C55.8625 132.231 58.1262 133.193 59.7953 134.905C61.4644 136.617 62.4021 138.939 62.4021 141.36ZM62.4021 104.847C62.4021 107.268 61.4644 109.589 59.7953 111.301C58.1262 113.013 55.8625 113.975 53.5021 113.975C51.1416 113.975 48.8779 113.013 47.2088 111.301C45.5397 109.589 44.6021 107.268 44.6021 104.847C44.6021 102.426 45.5397 100.104 47.2088 98.3921C48.8779 96.6802 51.1416 95.7185 53.5021 95.7185C55.8625 95.7185 58.1262 96.6802 59.7953 98.3921C61.4644 100.104 62.4021 102.426 62.4021 104.847Z" fill="black"/>
</svg>
