<svg width="128" height="128" viewBox="0 0 128 128" fill="none" xmlns="http://www.w3.org/2000/svg">
<path d="M38.6132 10.6666H28.4798C16.7998 10.6666 10.6665 16.8 10.6665 28.4266V38.56C10.6665 50.1866 16.7998 56.32 28.4265 56.32H38.5598C50.1865 56.32 56.3198 50.1866 56.3198 38.56V28.4266C56.3732 16.8 50.2398 10.6666 38.6132 10.6666Z" fill="#0D062D"/>
<path opacity="0.4" d="M99.5735 10.6666H89.4402C77.8135 10.6666 71.6802 16.8 71.6802 28.4266V38.56C71.6802 50.1866 77.8135 56.32 89.4402 56.32H99.5735C111.2 56.32 117.334 50.1866 117.334 38.56V28.4266C117.334 16.8 111.2 10.6666 99.5735 10.6666Z" fill="#0D062D"/>
<path d="M99.5735 71.6267H89.4402C77.8135 71.6267 71.6802 77.76 71.6802 89.3867V99.52C71.6802 111.147 77.8135 117.28 89.4402 117.28H99.5735C111.2 117.28 117.334 111.147 117.334 99.52V89.3867C117.334 77.76 111.2 71.6267 99.5735 71.6267Z" fill="#0D062D"/>
<path opacity="0.4" d="M38.6132 71.6267H28.4798C16.7998 71.6267 10.6665 77.76 10.6665 89.3867V99.52C10.6665 111.2 16.7998 117.333 28.4265 117.333H38.5598C50.1865 117.333 56.3198 111.2 56.3198 99.5734V89.44C56.3732 77.76 50.2398 71.6267 38.6132 71.6267Z" fill="#0D062D"/>
</svg>
