<svg width="96" height="96" viewBox="0 0 96 96" fill="none" xmlns="http://www.w3.org/2000/svg">
<path opacity="0.4" d="M40.3137 71.3623C57.7052 71.3623 71.8037 57.2638 71.8037 39.8723C71.8037 22.4809 57.7052 8.38232 40.3137 8.38232C22.9223 8.38232 8.82373 22.4809 8.82373 39.8723C8.82373 57.2638 22.9223 71.3623 40.3137 71.3623Z" fill="#34CAA5"/>
<path d="M87.5293 63.5196C87.5293 76.5255 76.9669 87.0879 63.961 87.0879C55.921 87.0879 48.8663 83.0679 44.6099 76.959C61.7934 75.0279 75.4693 61.352 77.4005 44.1685C83.5093 48.4249 87.5293 55.4796 87.5293 63.5196Z" fill="#34CAA5"/>
<path d="M46.0681 38.7694L36.6093 35.4588C35.6634 35.1435 35.4663 35.0647 35.4663 33.6853C35.4663 32.6606 36.1757 31.8329 37.0822 31.8329H42.994C44.2551 31.8329 45.2798 32.9759 45.2798 34.3947C45.2798 36.0106 46.6198 37.3506 48.2357 37.3506C49.8516 37.3506 51.1916 36.0106 51.1916 34.3947C51.1916 29.8623 47.684 26.1576 43.3093 25.9606V25.7635C43.3093 24.1476 41.9693 22.8076 40.3534 22.8076C38.7375 22.8076 37.3975 24.1082 37.3975 25.7635V25.9606H37.0428C32.9045 25.9606 29.5151 29.4288 29.5151 33.7247C29.5151 37.4688 31.1704 39.8729 34.5993 41.0553L44.0975 44.3659C45.0434 44.6811 45.2404 44.76 45.2404 46.1394C45.2404 47.1641 44.531 47.9917 43.6245 47.9917H37.7128C36.4516 47.9917 35.4269 46.8488 35.4269 45.43C35.4269 43.8141 34.0869 42.4741 32.471 42.4741C30.8551 42.4741 29.5151 43.8141 29.5151 45.43C29.5151 49.9623 33.0228 53.667 37.3975 53.8641V54.1006C37.3975 55.7164 38.7375 57.0564 40.3534 57.0564C41.9693 57.0564 43.3093 55.7164 43.3093 54.1006V53.9035H43.664C47.8022 53.9035 51.1916 50.4353 51.1916 46.1394C51.1916 42.3953 49.4969 39.9911 46.0681 38.7694Z" fill="#34CAA5"/>
</svg>
