<svg width="94" height="94" viewBox="0 0 94 94" fill="none" xmlns="http://www.w3.org/2000/svg">
<path d="M49.6637 15.51C51.5437 18.2909 52.6403 21.62 52.6403 25.2234C52.6012 34.6234 45.1987 42.2609 35.877 42.5742C35.4854 42.535 35.0154 42.535 34.5845 42.5742C25.2629 42.2609 17.8604 34.6234 17.8604 25.2234C17.8604 15.6275 25.6154 7.83337 35.2504 7.83337" stroke="#B2ABAB" stroke-width="5" stroke-linecap="round" stroke-linejoin="round"/>
<path d="M64.2719 15.6666C71.8702 15.6666 77.9802 21.8158 77.9802 29.375C77.9802 36.7775 72.1052 42.8091 64.781 43.0833C64.4677 43.0441 64.1152 43.0441 63.7627 43.0833" stroke="#B2ABAB" stroke-width="5" stroke-linecap="round" stroke-linejoin="round"/>
<path d="M16.2943 57.0266C6.81596 63.3716 6.81596 73.7116 16.2943 80.0175C27.0651 87.2241 44.7293 87.2241 55.5001 80.0175C64.9785 73.6725 64.9785 63.3325 55.5001 57.0266C44.7685 49.8591 27.1043 49.8591 16.2943 57.0266Z" stroke="#B2ABAB" stroke-width="5" stroke-linecap="round" stroke-linejoin="round"/>
<path d="M71.8311 78.3334C74.6511 77.7459 77.3144 76.61 79.5077 74.9259C85.6177 70.3434 85.6177 62.7842 79.5077 58.2017C77.3536 56.5567 74.7294 55.46 71.9486 54.8334" stroke="#B2ABAB" stroke-width="5" stroke-linecap="round" stroke-linejoin="round"/>
</svg>
