<svg width="152" height="152" viewBox="0 0 152 152" fill="none" xmlns="http://www.w3.org/2000/svg">
<path d="M92.8469 126.73L83.2203 136.357C79.2937 140.283 72.8336 140.283 68.907 136.357L59.2802 126.73C57.6335 125.083 54.4037 123.754 52.1237 123.754H38.5068C32.9335 123.754 28.3737 119.193 28.3737 113.62V100.004C28.3737 97.7235 27.0437 94.4935 25.397 92.8468L15.7702 83.2201C11.8435 79.2934 11.8435 72.8333 15.7702 68.9067L25.397 59.2799C27.0437 57.6332 28.3737 54.4032 28.3737 52.1232V38.5063C28.3737 32.933 32.9335 28.3732 38.5068 28.3732" stroke="#B2ABAB" stroke-width="5" stroke-linecap="round" stroke-linejoin="round"/>
<path d="M59.1533 25.2702L68.7799 15.6434C72.7066 11.7167 79.1666 11.7167 83.0933 15.6434L92.7201 25.2702C94.3668 26.9168 97.5966 28.2466 99.8766 28.2466H113.493C119.067 28.2466 123.627 32.8073 123.627 38.3806V51.9966C123.627 54.2766 124.957 57.5067 126.603 59.1533L136.23 68.7801C140.157 72.7068 140.157 79.1669 136.23 83.0935L126.603 92.7203C124.957 94.367 123.627 97.597 123.627 99.877V113.494C123.627 119.067 119.067 123.627 113.493 123.627" stroke="#B2ABAB" stroke-width="5" stroke-linecap="round" stroke-linejoin="round"/>
<path d="M57 95L95 57" stroke="#B2ABAB" stroke-width="5" stroke-linecap="round" stroke-linejoin="round"/>
<path d="M91.7984 91.8333H91.8553" stroke="#B2ABAB" stroke-width="2" stroke-linecap="round" stroke-linejoin="round"/>
<path d="M60.1319 60.1667H60.1888" stroke="#B2ABAB" stroke-width="2" stroke-linecap="round" stroke-linejoin="round"/>
</svg>
