<svg width="90" height="90" viewBox="0 0 90 90" fill="none" xmlns="http://www.w3.org/2000/svg">
<path d="M56.25 45C56.25 38.775 51.225 33.75 45 33.75C38.775 33.75 33.75 38.775 33.75 45C33.75 51.225 38.775 56.25 45 56.25C46.5375 56.25 48.0375 55.95 49.3875 55.35" stroke="#B2ABAB" stroke-width="1.5" stroke-miterlimit="10" stroke-linecap="round" stroke-linejoin="round"/>
<path d="M25.7998 77.175L29.8873 79.5374C32.8498 81.2999 36.6748 80.25 38.4373 77.2875L38.8498 76.575C42.2248 70.6875 47.7748 70.6875 51.1873 76.575L51.5998 77.2875C53.3623 80.25 57.1873 81.2999 60.1498 79.5374L66.6373 75.8249C70.0498 73.8749 71.2123 69.4874 69.2623 66.1124C65.8498 60.2249 68.6248 55.425 75.4123 55.425C79.3123 55.425 82.5373 52.2375 82.5373 48.3V41.7C82.5373 37.8 79.3498 34.575 75.4123 34.575C71.6248 34.575 69.0748 33.075 68.1748 30.7125C67.4623 28.875 67.7623 26.475 69.2623 23.8875C71.2123 20.475 70.0498 16.125 66.6373 14.175L63.5998 12.45" stroke="#B2ABAB" stroke-width="1.5" stroke-miterlimit="10" stroke-linecap="round" stroke-linejoin="round"/>
<path d="M51.15 13.425C47.775 19.3125 42.225 19.3125 38.8125 13.425L38.4 12.7125C36.675 9.75001 32.85 8.70001 29.8875 10.4625L23.4 14.175C19.9875 16.125 18.825 20.5125 20.775 23.925C24.1875 29.775 21.4125 34.575 14.625 34.575C10.725 34.575 7.5 37.7625 7.5 41.7V48.3C7.5 52.2 10.6875 55.425 14.625 55.425C21.4125 55.425 24.1875 60.225 20.775 66.1125" stroke="#B2ABAB" stroke-width="1.5" stroke-miterlimit="10" stroke-linecap="round" stroke-linejoin="round"/>
</svg>
