<svg width="697" height="697" viewBox="0 0 697 697" fill="none" xmlns="http://www.w3.org/2000/svg">
<path d="M251.687 535.062C248.448 535.062 245.533 534.415 242.294 533.119C233.226 529.556 227.396 520.488 227.396 510.772V316.446C227.396 303.167 238.408 292.155 251.687 292.155C264.966 292.155 275.977 303.167 275.977 316.446V452.15L299.296 428.831C308.689 419.439 324.235 419.439 333.627 428.831C343.02 438.223 343.02 453.769 333.627 463.162L268.852 527.937C264.318 532.471 257.84 535.062 251.687 535.062Z" fill="#292D32"/>
<path d="M251.669 535.068C245.515 535.068 239.361 532.801 234.503 527.943L169.728 463.168C160.335 453.775 160.335 438.229 169.728 428.837C179.12 419.444 194.666 419.444 204.059 428.837L268.834 493.612C278.226 503.004 278.226 518.55 268.834 527.943C263.976 532.801 257.822 535.068 251.669 535.068Z" fill="#292D32"/>
<path d="M445.996 697H251.67C75.8057 697 0.666504 621.861 0.666504 445.996V251.671C0.666504 75.806 75.8057 0.666748 251.67 0.666748H413.608C426.887 0.666748 437.899 11.6785 437.899 24.9574C437.899 38.2364 426.887 49.2481 413.608 49.2481H251.67C102.364 49.2481 49.2479 102.364 49.2479 251.671V445.996C49.2479 595.303 102.364 648.419 251.67 648.419H445.996C595.303 648.419 648.419 595.303 648.419 445.996V284.058C648.419 270.779 659.43 259.768 672.709 259.768C685.988 259.768 697 270.779 697 284.058V445.996C697 621.861 621.861 697 445.996 697Z" fill="#292D32"/>
<path d="M672.709 308.348H543.158C432.393 308.348 389.317 265.273 389.317 154.507V24.957C389.317 15.2407 395.147 6.17219 404.216 2.60956C413.284 -1.27695 423.648 0.990181 430.774 7.79158L689.874 266.892C696.676 273.694 698.943 284.382 695.056 293.45C691.17 302.519 682.425 308.348 672.709 308.348ZM437.899 83.5786V154.507C437.899 238.067 459.598 259.767 543.158 259.767H614.087L437.899 83.5786Z" fill="#292D32"/>
</svg>
