<svg width="216" height="216" viewBox="0 0 216 216" fill="none" xmlns="http://www.w3.org/2000/svg">
<path fill-rule="evenodd" clip-rule="evenodd" d="M108 216C167.647 216 216 167.647 216 108C216 48.3533 167.647 0 108 0C48.3531 0 0 48.3533 0 108C0 167.647 48.3531 216 108 216ZM141.692 50.311C143.332 44.4855 137.679 41.0407 132.516 44.719L60.4428 96.0637C54.8435 100.053 55.7243 108 61.7658 108H80.7446V107.853H117.734L87.5945 118.487L74.3078 165.689C72.6679 171.515 78.3206 174.959 83.4841 171.281L155.557 119.937C161.157 115.948 160.275 108 154.234 108H125.453L141.692 50.311Z" fill="#34CAA5"/>
</svg>
