<svg width="110" height="110" viewBox="0 0 110 110" fill="none" xmlns="http://www.w3.org/2000/svg">
<path d="M55 17.1875C55.9117 17.1875 56.786 16.8253 57.4307 16.1807C58.0753 15.536 58.4375 14.6617 58.4375 13.75V10.3125C58.4375 9.40082 58.0753 8.52648 57.4307 7.88182C56.786 7.23716 55.9117 6.875 55 6.875C54.0883 6.875 53.214 7.23716 52.5693 7.88182C51.9247 8.52648 51.5625 9.40082 51.5625 10.3125V13.75C51.5625 14.6617 51.9247 15.536 52.5693 16.1807C53.214 16.8253 54.0883 17.1875 55 17.1875Z" fill="white"/>
<path d="M55 92.8125C54.0883 92.8125 53.214 93.1747 52.5693 93.8193C51.9247 94.464 51.5625 95.3383 51.5625 96.25V99.6875C51.5625 100.599 51.9247 101.474 52.5693 102.118C53.214 102.763 54.0883 103.125 55 103.125C55.9117 103.125 56.786 102.763 57.4307 102.118C58.0753 101.474 58.4375 100.599 58.4375 99.6875V96.25C58.4375 95.3383 58.0753 94.464 57.4307 93.8193C56.786 93.1747 55.9117 92.8125 55 92.8125Z" fill="white"/>
<path d="M99.6875 51.5625H96.25C95.3383 51.5625 94.464 51.9247 93.8193 52.5693C93.1747 53.214 92.8125 54.0883 92.8125 55C92.8125 55.9117 93.1747 56.786 93.8193 57.4307C94.464 58.0753 95.3383 58.4375 96.25 58.4375H99.6875C100.599 58.4375 101.474 58.0753 102.118 57.4307C102.763 56.786 103.125 55.9117 103.125 55C103.125 54.0883 102.763 53.214 102.118 52.5693C101.474 51.9247 100.599 51.5625 99.6875 51.5625Z" fill="white"/>
<path d="M13.75 51.5625H10.3125C9.40082 51.5625 8.52648 51.9247 7.88182 52.5693C7.23716 53.214 6.875 54.0883 6.875 55C6.875 55.9117 7.23716 56.786 7.88182 57.4307C8.52648 58.0753 9.40082 58.4375 10.3125 58.4375H13.75C14.6617 58.4375 15.536 58.0753 16.1807 57.4307C16.8253 56.786 17.1875 55.9117 17.1875 55C17.1875 54.0883 16.8253 53.214 16.1807 52.5693C15.536 51.9247 14.6617 51.5625 13.75 51.5625Z" fill="white"/>
<path d="M84.1677 20.9691L81.7374 23.3994C81.4091 23.7165 81.1472 24.0958 80.9671 24.5152C80.7869 24.9345 80.6921 25.3856 80.6881 25.842C80.6842 26.2985 80.7711 26.7511 80.944 27.1736C81.1168 27.596 81.3721 27.9798 81.6948 28.3026C82.0176 28.6254 82.4014 28.8806 82.8238 29.0534C83.2463 29.2263 83.6989 29.3133 84.1554 29.3093C84.6118 29.3053 85.0629 29.2105 85.4822 29.0303C85.9016 28.8502 86.2809 28.5883 86.598 28.26L89.0318 25.8331C89.3512 25.5137 89.6045 25.1346 89.7774 24.7173C89.9502 24.3 90.0392 23.8528 90.0392 23.4011C90.0392 22.9494 89.9502 22.5022 89.7774 22.0849C89.6045 21.6676 89.3512 21.2884 89.0318 20.9691C88.7124 20.6497 88.3333 20.3963 87.916 20.2235C87.4987 20.0506 87.0514 19.9617 86.5998 19.9617C86.1481 19.9617 85.7008 20.0506 85.2836 20.2235C84.8663 20.3963 84.4871 20.6497 84.1677 20.9691Z" fill="white"/>
<path d="M23.4001 81.7371L20.9664 84.1674C20.647 84.4868 20.3936 84.866 20.2208 85.2833C20.0479 85.7005 19.959 86.1478 19.959 86.5995C19.959 87.0511 20.0479 87.4984 20.2208 87.9157C20.3936 88.333 20.647 88.7121 20.9664 89.0315C21.6114 89.6765 22.4862 90.0389 23.3984 90.0389C23.8501 90.0389 24.2973 89.9499 24.7146 89.7771C25.1319 89.6042 25.511 89.3509 25.8304 89.0315L28.2607 86.6012C28.5801 86.282 28.8335 85.9031 29.0064 85.486C29.1794 85.0689 29.2685 84.6219 29.2686 84.1704C29.2688 83.7189 29.18 83.2717 29.0074 82.8545C28.8347 82.4373 28.5816 82.0582 28.2625 81.7388C27.9433 81.4195 27.5644 81.1661 27.1473 80.9931C26.7302 80.8202 26.2832 80.7311 25.8316 80.731C24.9198 80.7306 24.0451 81.0926 23.4001 81.7371Z" fill="white"/>
<path d="M86.5956 81.7373C85.9473 81.1111 85.0789 80.7646 84.1776 80.7725C83.2763 80.7803 82.4142 81.1418 81.7768 81.7792C81.1395 82.4165 80.778 83.2787 80.7701 84.18C80.7623 85.0813 81.1088 85.9496 81.735 86.5979L84.1653 89.0317C84.8103 89.6767 85.6851 90.039 86.5973 90.039C87.5095 90.039 88.3843 89.6767 89.0293 89.0317C89.6744 88.3866 90.0367 87.5118 90.0367 86.5996C90.0367 85.6874 89.6744 84.8126 89.0293 84.1676L86.5956 81.7373Z" fill="white"/>
<path d="M23.4001 28.2634C24.0484 28.8896 24.9168 29.2361 25.8181 29.2282C26.7194 29.2204 27.5815 28.8589 28.2189 28.2216C28.8562 27.5842 29.2177 26.722 29.2256 25.8207C29.2334 24.9194 28.8869 24.0511 28.2607 23.4028L25.8304 20.969C25.1854 20.324 24.3106 19.9617 23.3984 19.9617C22.4862 19.9617 21.6114 20.324 20.9664 20.969C20.3213 21.6141 19.959 22.4889 19.959 23.4011C19.959 24.3133 20.3213 25.1881 20.9664 25.8331L23.4001 28.2634Z" fill="white"/>
<path d="M84.9071 60.0978C84.4636 59.6601 83.9095 59.3511 83.3041 59.204C82.6986 59.0569 82.0645 59.0771 81.4696 59.2625C79.163 59.9749 76.7612 60.3319 74.3471 60.3212C67.8056 60.3148 61.5338 57.7137 56.9079 53.0884C52.2821 48.4632 49.68 42.1918 49.6727 35.6503C49.6643 33.2369 50.0236 30.8363 50.7384 28.5312C50.9249 27.9357 50.9459 27.3006 50.799 26.6941C50.652 26.0875 50.3427 25.5325 49.9043 25.0884C49.4658 24.6443 48.9148 24.3279 48.3102 24.1732C47.7056 24.0185 47.0703 24.0313 46.4724 24.2103C41.2542 25.7883 36.5341 28.6918 32.7724 32.6376C29.0107 36.5834 26.3359 41.4368 25.0088 46.7244C23.6818 52.012 23.7479 57.5532 25.2006 62.8077C26.6532 68.0622 29.443 72.8504 33.2977 76.7054C37.1523 80.5604 41.9404 83.3506 47.1947 84.8038C52.449 86.2569 57.9903 86.3234 63.278 84.9969C68.5657 83.6703 73.4194 80.9959 77.3655 77.2346C81.3116 73.4732 84.2155 68.7533 85.794 63.5353C85.9729 62.9358 85.9849 62.2989 85.8286 61.6932C85.6724 61.0874 85.3537 60.5358 84.9071 60.0978Z" fill="white"/>
</svg>
