<svg width="70" height="70" viewBox="0 0 70 70" fill="none" xmlns="http://www.w3.org/2000/svg">
<path d="M35 10.9375C35.5802 10.9375 36.1366 10.707 36.5468 10.2968C36.957 9.88656 37.1875 9.33016 37.1875 8.75V6.5625C37.1875 5.98234 36.957 5.42594 36.5468 5.0157C36.1366 4.60547 35.5802 4.375 35 4.375C34.4198 4.375 33.8634 4.60547 33.4532 5.0157C33.043 5.42594 32.8125 5.98234 32.8125 6.5625V8.75C32.8125 9.33016 33.043 9.88656 33.4532 10.2968C33.8634 10.707 34.4198 10.9375 35 10.9375Z" fill="#B2ABAB"/>
<path d="M35 59.0625C34.4198 59.0625 33.8634 59.293 33.4532 59.7032C33.043 60.1134 32.8125 60.6698 32.8125 61.25V63.4375C32.8125 64.0177 33.043 64.5741 33.4532 64.9843C33.8634 65.3945 34.4198 65.625 35 65.625C35.5802 65.625 36.1366 65.3945 36.5468 64.9843C36.957 64.5741 37.1875 64.0177 37.1875 63.4375V61.25C37.1875 60.6698 36.957 60.1134 36.5468 59.7032C36.1366 59.293 35.5802 59.0625 35 59.0625Z" fill="#B2ABAB"/>
<path d="M63.4375 32.8125H61.25C60.6698 32.8125 60.1134 33.043 59.7032 33.4532C59.293 33.8634 59.0625 34.4198 59.0625 35C59.0625 35.5802 59.293 36.1366 59.7032 36.5468C60.1134 36.957 60.6698 37.1875 61.25 37.1875H63.4375C64.0177 37.1875 64.5741 36.957 64.9843 36.5468C65.3945 36.1366 65.625 35.5802 65.625 35C65.625 34.4198 65.3945 33.8634 64.9843 33.4532C64.5741 33.043 64.0177 32.8125 63.4375 32.8125Z" fill="#B2ABAB"/>
<path d="M8.75 32.8125H6.5625C5.98234 32.8125 5.42594 33.043 5.0157 33.4532C4.60547 33.8634 4.375 34.4198 4.375 35C4.375 35.5802 4.60547 36.1366 5.0157 36.5468C5.42594 36.957 5.98234 37.1875 6.5625 37.1875H8.75C9.33016 37.1875 9.88656 36.957 10.2968 36.5468C10.707 36.1366 10.9375 35.5802 10.9375 35C10.9375 34.4198 10.707 33.8634 10.2968 33.4532C9.88656 33.043 9.33016 32.8125 8.75 32.8125Z" fill="#B2ABAB"/>
<path d="M53.5615 13.3439L52.015 14.8905C51.8061 15.0923 51.6394 15.3337 51.5248 15.6006C51.4101 15.8674 51.3498 16.1545 51.3473 16.4449C51.3447 16.7354 51.4001 17.0234 51.5101 17.2923C51.6201 17.5611 51.7825 17.8054 51.9879 18.0107C52.1933 18.2161 52.4375 18.3786 52.7063 18.4886C52.9752 18.5985 53.2632 18.6539 53.5537 18.6514C53.8441 18.6488 54.1312 18.5885 54.3981 18.4739C54.6649 18.3592 54.9063 18.1926 55.1081 17.9836L56.6569 16.4393C56.8601 16.236 57.0213 15.9947 57.1313 15.7292C57.2413 15.4636 57.2979 15.179 57.2979 14.8916C57.2979 14.6042 57.2413 14.3196 57.1313 14.054C57.0213 13.7885 56.8601 13.5472 56.6569 13.3439C56.4536 13.1407 56.2123 12.9795 55.9468 12.8695C55.6812 12.7595 55.3966 12.7029 55.1092 12.7029C54.8218 12.7029 54.5372 12.7595 54.2716 12.8695C54.0061 12.9795 53.7648 13.1407 53.5615 13.3439Z" fill="#B2ABAB"/>
<path d="M14.891 52.0146L13.3422 53.5611C13.139 53.7644 12.9778 54.0056 12.8678 54.2712C12.7578 54.5367 12.7012 54.8213 12.7012 55.1088C12.7012 55.3962 12.7578 55.6808 12.8678 55.9464C12.9778 56.2119 13.139 56.4532 13.3422 56.6564C13.7527 57.0669 14.3094 57.2975 14.8899 57.2975C15.1773 57.2975 15.4619 57.2409 15.7275 57.1309C15.993 57.0209 16.2343 56.8597 16.4375 56.6564L17.9841 55.1099C18.1873 54.9068 18.3486 54.6656 18.4586 54.4002C18.5687 54.1348 18.6254 53.8503 18.6255 53.563C18.6256 53.2757 18.5691 52.9911 18.4592 52.7256C18.3494 52.4601 18.1883 52.2189 17.9852 52.0156C17.7821 51.8124 17.541 51.6512 17.2755 51.5411C17.0101 51.4311 16.7256 51.3744 16.4383 51.3743C15.858 51.3741 15.3014 51.6044 14.891 52.0146Z" fill="#B2ABAB"/>
<path d="M55.1061 52.0146C54.6935 51.6161 54.141 51.3956 53.5674 51.4006C52.9939 51.4056 52.4452 51.6356 52.0396 52.0412C51.6341 52.4468 51.404 52.9954 51.399 53.569C51.394 54.1426 51.6145 54.6951 52.013 55.1077L53.5595 56.6564C53.97 57.0669 54.5267 57.2975 55.1072 57.2975C55.6877 57.2975 56.2444 57.0669 56.6549 56.6564C57.0653 56.246 57.2959 55.6893 57.2959 55.1088C57.2959 54.5283 57.0653 53.9716 56.6549 53.5611L55.1061 52.0146Z" fill="#B2ABAB"/>
<path d="M14.891 17.9858C15.3035 18.3843 15.8561 18.6048 16.4297 18.5998C17.0032 18.5948 17.5519 18.3648 17.9575 17.9592C18.363 17.5536 18.5931 17.0049 18.5981 16.4314C18.6031 15.8578 18.3826 15.3053 17.9841 14.8927L16.4375 13.3439C16.0271 12.9335 15.4704 12.7029 14.8899 12.7029C14.3094 12.7029 13.7527 12.9335 13.3422 13.3439C12.9318 13.7544 12.7012 14.3111 12.7012 14.8916C12.7012 15.4721 12.9318 16.0288 13.3422 16.4393L14.891 17.9858Z" fill="#B2ABAB"/>
<path d="M54.0319 38.2441C53.7497 37.9655 53.3971 37.7689 53.0118 37.6753C52.6265 37.5817 52.2229 37.5945 51.8444 37.7125C50.3765 38.1659 48.8482 38.3931 47.3119 38.3862C43.1491 38.3822 39.158 36.7269 36.2142 33.7836C33.2705 30.8402 31.6146 26.8493 31.61 22.6866C31.6046 21.1508 31.8333 19.6231 32.2881 18.1562C32.4069 17.7773 32.4202 17.3731 32.3267 16.9872C32.2332 16.6012 32.0364 16.248 31.7574 15.9653C31.4784 15.6827 31.1277 15.4814 30.7429 15.383C30.3582 15.2845 29.9539 15.2927 29.5734 15.4066C26.2528 16.4107 23.249 18.2584 20.8552 20.7694C18.4614 23.2803 16.7593 26.3689 15.9148 29.7337C15.0703 33.0985 15.1124 36.6248 16.0368 39.9686C16.9612 43.3123 18.7365 46.3594 21.1895 48.8126C23.6425 51.2658 26.6894 53.0413 30.0331 53.966C33.3767 54.8908 36.903 54.9331 40.2679 54.0889C43.6328 53.2448 46.7215 51.5429 49.2327 49.1493C51.7438 46.7557 53.5918 43.7521 54.5963 40.4316C54.7101 40.0501 54.7178 39.6448 54.6183 39.2593C54.5189 38.8738 54.3161 38.5228 54.0319 38.2441Z" fill="#B2ABAB"/>
</svg>
