<svg width="177" height="188" viewBox="0 0 177 188" fill="none" xmlns="http://www.w3.org/2000/svg">
<path fill-rule="evenodd" clip-rule="evenodd" d="M88.4956 0C70.4576 0 53.1583 7.13976 40.4035 19.8486C27.6487 32.5575 20.4831 49.7944 20.4831 67.7674V73.9234C20.4826 80.0171 18.6719 85.9744 15.2791 91.0445L5.21325 106.111C-6.49367 123.599 2.4401 147.366 22.7912 152.892C29.4169 154.693 36.1041 156.215 42.8351 157.465L42.8527 157.509C49.5925 175.452 67.6268 188 88.4956 188C109.364 188 127.399 175.452 134.147 157.509L134.165 157.465C140.906 156.216 147.593 154.69 154.209 152.892C174.56 147.366 183.494 123.599 171.787 106.111L161.712 91.0445C158.319 85.9744 156.509 80.0171 156.508 73.9234V67.7674C156.508 49.7944 149.343 32.5575 136.588 19.8486C123.833 7.13976 106.534 0 88.4956 0ZM118.123 159.905C98.4384 162.248 78.5441 162.248 58.8597 159.905C65.0993 168.833 75.955 174.884 88.4956 174.884C101.036 174.884 111.883 168.833 118.123 159.905ZM33.6469 67.7674C33.6469 53.2731 39.4255 39.3723 49.7117 29.1232C59.9978 18.8742 73.9488 13.1163 88.4956 13.1163C103.042 13.1163 116.993 18.8742 127.28 29.1232C137.566 39.3723 143.344 53.2731 143.344 67.7674V73.9234C143.344 82.6063 145.924 91.0969 150.76 98.3196L160.835 113.386C162.396 115.715 163.378 118.381 163.702 121.164C164.025 123.946 163.679 126.766 162.693 129.389C161.707 132.012 160.11 134.364 158.032 136.251C155.954 138.137 153.455 139.504 150.742 140.239C109.986 151.314 66.9966 151.314 26.2401 140.239C23.5298 139.502 21.034 138.134 18.9582 136.248C16.8825 134.362 15.2861 132.011 14.3006 129.39C13.3151 126.768 12.9687 123.951 13.2898 121.17C13.611 118.39 14.5906 115.724 16.1479 113.395L26.2401 98.3196C31.0715 91.0942 33.6487 82.6056 33.6469 73.9234V67.7674Z" fill="#0D062D"/>
</svg>
