<svg width="82" height="82" viewBox="0 0 82 82" fill="none" xmlns="http://www.w3.org/2000/svg">
<path fill-rule="evenodd" clip-rule="evenodd" d="M39.4084 0C61.1379 0 78.8128 17.2851 78.8128 38.5353C78.8128 48.561 74.8785 57.705 68.4403 64.5677L81.1088 76.9308C82.2944 78.0903 82.2984 79.966 81.1128 81.1255C80.522 81.7111 79.7411 82 78.9642 82C78.1913 82 77.4144 81.7111 76.8195 81.1334L63.9982 68.6298C57.2536 73.912 48.7018 77.0745 39.4084 77.0745C17.679 77.0745 0 59.7854 0 38.5353C0 17.2851 17.679 0 39.4084 0ZM39.4084 5.93581C21.0254 5.93581 6.06968 20.5577 6.06968 38.5353C6.06968 56.5128 21.0254 71.1387 39.4084 71.1387C57.7874 71.1387 72.7431 56.5128 72.7431 38.5353C72.7431 20.5577 57.7874 5.93581 39.4084 5.93581Z" fill="#78828A"/>
</svg>
