<svg width="81" height="85" viewBox="0 0 81 85" fill="none" xmlns="http://www.w3.org/2000/svg">
<path d="M59.6471 84.0734C63.4562 84.0734 66.5441 80.9855 66.5441 77.1764C66.5441 73.3672 63.4562 70.2793 59.6471 70.2793C55.8379 70.2793 52.75 73.3672 52.75 77.1764C52.75 80.9855 55.8379 84.0734 59.6471 84.0734Z" fill="#34CAA5"/>
<path d="M28.1178 84.0734C31.9269 84.0734 35.0148 80.9855 35.0148 77.1764C35.0148 73.3672 31.9269 70.2793 28.1178 70.2793C24.3086 70.2793 21.2207 73.3672 21.2207 77.1764C21.2207 80.9855 24.3086 84.0734 28.1178 84.0734Z" fill="#34CAA5"/>
<path opacity="0.4" d="M14.6781 10.9253L13.8899 20.5811C13.7322 22.4335 15.1905 23.9705 17.0428 23.9705H77.3822C79.0375 23.9705 80.417 22.7093 80.5352 21.0541C81.0475 14.0782 75.7269 8.40291 68.7511 8.40291H20.3928C19.9987 6.66879 19.2104 5.01347 17.9887 3.63406C16.0575 1.54524 13.2987 0.323486 10.4611 0.323486H3.48518C1.8693 0.323486 0.529297 1.66349 0.529297 3.27937C0.529297 4.89525 1.8693 6.23525 3.48518 6.23525H10.3428C11.5646 6.23525 12.7075 6.74763 13.5352 7.61469C14.3628 8.52116 14.7569 9.7035 14.6781 10.9253Z" fill="#34CAA5"/>
<path d="M76.4367 29.8823H15.9791C14.3238 29.8823 12.9838 31.1435 12.8261 32.7594L11.4073 49.9035C10.8555 56.6035 16.1367 62.397 22.8761 62.397H66.702C72.6138 62.397 77.8161 57.5494 78.2497 51.6376L79.5503 33.2323C79.7079 31.4194 78.2891 29.8823 76.4367 29.8823Z" fill="#34CAA5"/>
</svg>
