<svg width="66" height="66" viewBox="0 0 66 66" fill="none" xmlns="http://www.w3.org/2000/svg">
<path d="M33 49.5C42.1127 49.5 49.5 42.1127 49.5 33C49.5 23.8873 42.1127 16.5 33 16.5C23.8873 16.5 16.5 23.8873 16.5 33C16.5 42.1127 23.8873 49.5 33 49.5Z" fill="#A3A3A3"/>
<path d="M33.0002 9.89884C31.1762 9.89884 29.7002 8.42119 29.7002 6.59884V3.3C29.7002 1.47765 31.1762 0 33.0002 0C34.8242 0 36.3002 1.47765 36.3002 3.3V6.59884C36.3002 8.42119 34.8242 9.89884 33.0002 9.89884Z" fill="#A3A3A3"/>
<path d="M51.6687 17.6315C50.8243 17.6315 49.98 17.3092 49.3354 16.6647C48.0464 15.376 48.0464 13.2865 49.3354 11.9979L51.6687 9.66504C52.9577 8.37675 55.046 8.37637 56.3351 9.66543C57.6241 10.9541 57.6241 13.0435 56.3351 14.3322L54.0019 16.665C53.3573 17.3092 52.513 17.6315 51.6687 17.6315Z" fill="#A3A3A3"/>
<path d="M62.7001 36.3H59.4001C57.5761 36.3 56.1001 34.8223 56.1001 33C56.1001 31.1776 57.5761 29.7 59.4001 29.7H62.7001C64.5241 29.7 66.0001 31.1776 66.0001 33C66.0001 34.8223 64.5241 36.3 62.7001 36.3Z" fill="#A3A3A3"/>
<path d="M54.0019 57.3011C53.1575 57.3011 52.3132 56.9792 51.6687 56.3346L49.3354 54.0018C48.0464 52.7131 48.0464 50.6237 49.3354 49.335C50.6245 48.046 52.7128 48.0456 54.0019 49.3346L56.3351 51.6675C57.6241 52.9561 57.6241 55.0456 56.3351 56.3343C55.6905 56.9788 54.8462 57.3011 54.0019 57.3011Z" fill="#A3A3A3"/>
<path d="M33.0002 65.9997C31.1762 65.9997 29.7002 64.522 29.7002 62.6997V59.4008C29.7002 57.5785 31.1762 56.1008 33.0002 56.1008C34.8242 56.1008 36.3002 57.5785 36.3002 59.4008V62.6997C36.3002 64.522 34.8242 65.9997 33.0002 65.9997Z" fill="#A3A3A3"/>
<path d="M11.9997 57.3011C11.1554 57.3011 10.311 56.9789 9.6665 56.3343C8.37744 55.0457 8.37744 52.9562 9.6665 51.6675L11.9997 49.3347C13.2888 48.0464 15.3771 48.046 16.6661 49.3351C17.9552 50.6238 17.9552 52.7132 16.6661 54.0019L14.3329 56.3347C13.6884 56.9789 12.844 57.3011 11.9997 57.3011Z" fill="#A3A3A3"/>
<path d="M6.6 36.3H3.3C1.47598 36.3 0 34.8223 0 33C0 31.1776 1.47598 29.7 3.3 29.7H6.6C8.42402 29.7 9.9 31.1776 9.9 33C9.9 34.8223 8.42402 36.3 6.6 36.3Z" fill="#A3A3A3"/>
<path d="M14.3329 17.6317C13.4886 17.6317 12.6442 17.3099 11.9997 16.6653L9.6665 14.3325C8.37744 13.0438 8.37744 10.9544 9.6665 9.66572C10.9556 8.37666 13.0438 8.37627 14.3329 9.66533L16.6661 11.9982C17.9552 13.2868 17.9552 15.3763 16.6661 16.6649C16.0216 17.3095 15.1772 17.6317 14.3329 17.6317Z" fill="#A3A3A3"/>
</svg>
