<svg width="152" height="152" viewBox="0 0 152 152" fill="none" xmlns="http://www.w3.org/2000/svg">
<path d="M76.4375 114.219C97.3035 114.219 114.219 97.3039 114.219 76.4379C114.219 55.5719 97.3035 38.6566 76.4375 38.6566C55.5715 38.6566 38.6562 55.5719 38.6562 76.4379C38.6562 97.3039 55.5715 114.219 76.4375 114.219Z" fill="white"/>
<path d="M76.4376 23.5415C72.261 23.5415 68.8813 20.158 68.8813 15.9852V8.43162C68.8813 4.25885 72.261 0.875366 76.4376 0.875366C80.6142 0.875366 83.9939 4.25885 83.9939 8.43162V15.9852C83.9939 20.158 80.6142 23.5415 76.4376 23.5415Z" fill="white"/>
<path d="M119.187 41.2476C117.253 41.2476 115.32 40.5097 113.844 39.0339C110.892 36.0831 110.892 31.2987 113.844 28.348L119.187 23.0063C122.138 20.0564 126.92 20.0556 129.872 23.0072C132.823 25.958 132.823 30.7423 129.872 33.6931L124.529 39.0347C123.053 40.5097 121.12 41.2476 119.187 41.2476Z" fill="white"/>
<path d="M144.444 83.9941H136.888C132.711 83.9941 129.332 80.6106 129.332 76.4378C129.332 72.2651 132.711 68.8816 136.888 68.8816H144.444C148.621 68.8816 152 72.2651 152 76.4378C152 80.6106 148.621 83.9941 144.444 83.9941Z" fill="white"/>
<path d="M124.529 132.082C122.596 132.082 120.662 131.345 119.187 129.869L113.844 124.527C110.892 121.577 110.892 116.792 113.844 113.841C116.796 110.89 121.577 110.889 124.529 113.841L129.872 119.182C132.823 122.133 132.823 126.917 129.872 129.868C128.396 131.344 126.462 132.082 124.529 132.082Z" fill="white"/>
<path d="M76.4376 152C72.261 152 68.8813 148.616 68.8813 144.444V136.89C68.8813 132.717 72.261 129.334 76.4376 129.334C80.6142 129.334 83.9939 132.717 83.9939 136.89V144.444C83.9939 148.616 80.6142 152 76.4376 152Z" fill="white"/>
<path d="M28.3497 132.082C26.4164 132.082 24.483 131.344 23.0072 129.868C20.0555 126.918 20.0555 122.133 23.0072 119.182L28.3497 113.841C31.3014 110.891 36.0831 110.89 39.0347 113.842C41.9864 116.792 41.9864 121.577 39.0347 124.528L33.6922 129.869C32.2164 131.344 30.283 132.082 28.3497 132.082Z" fill="white"/>
<path d="M15.9875 83.9941H8.43125C4.25465 83.9941 0.875 80.6106 0.875 76.4378C0.875 72.2651 4.25465 68.8816 8.43125 68.8816H15.9875C20.1641 68.8816 23.5437 72.2651 23.5437 76.4378C23.5437 80.6106 20.1641 83.9941 15.9875 83.9941Z" fill="white"/>
<path d="M33.6922 41.2483C31.7589 41.2483 29.8255 40.5112 28.3497 39.0354L23.0072 33.6938C20.0555 30.743 20.0555 25.9587 23.0072 23.0079C25.9589 20.0562 30.7406 20.0553 33.6922 23.007L39.0347 28.3486C41.9864 31.2994 41.9864 36.0837 39.0347 39.0345C37.5589 40.5103 35.6256 41.2483 33.6922 41.2483Z" fill="white"/>
</svg>
