<svg width="161" height="51" viewBox="0 0 161 51" fill="none" xmlns="http://www.w3.org/2000/svg">
<path d="M3.66101 12.4793H0.577148L0.577148 50.198L160.471 50.198V17.0716L155.846 28.5512L154.008 33.143H151.853L147.544 28.5512L144.528 33.1431L135.479 33.1435L130.739 28.5513L128.153 21.6624L124.39 25.1073L120.998 28.5512L119.939 33.7986L117.784 33.143H115.139L110.204 17.0716L108.662 21.6634L106.195 17.0716L104.345 25.1073L99.4109 11.3318L96.6354 17.0716H91.3928L85.8419 5.59205L82.4496 11.3318L77.9822 7.88751L72.5387 17.0712L69.039 0.999765L66.506 17.0712L49.6106 23.9589L47.4519 19.3671H45.2932L40.359 12.4793H35.4248L33.5745 19.3671L26.1732 5.59159L23.0894 23.9589L21.5474 17.0712H18.1552L15.0713 0.999765L11.9875 14.7752L10.4455 7.88751H6.43649L3.66101 12.4793Z" fill="url(#paint0_linear_3424_131)" fill-opacity="0.16"/>
<path d="M0.577148 12.4793H3.66101L6.43649 7.88751H10.4455L11.9875 14.7752L15.0713 0.999762L18.1552 17.0712H21.5474L23.0894 23.9589L26.1732 5.59158L33.5745 19.3671L35.4248 12.4793H40.359L45.2932 19.3671H47.4519L49.6106 23.9589L66.506 17.0712L69.039 0.999762L72.5387 17.0712L77.9822 7.88751L82.4496 11.3318L85.8419 5.59204L91.3928 17.0716L96.6354 17.0716L99.4109 11.3318L104.345 25.1073L106.195 17.0716L108.662 21.6634L110.204 17.0716L115.139 33.143H117.784L119.939 33.7986L120.998 28.5512L124.39 25.1073L128.153 21.6624L130.739 28.5513L135.479 33.1435L144.528 33.1431L147.544 28.5512L151.853 33.143H154.008L155.846 28.5512L160.471 17.0716" stroke="#ED544E" stroke-linecap="round"/>
<defs>
<linearGradient id="paint0_linear_3424_131" x1="80.5243" y1="50.198" x2="80.5243" y2="0.999765" gradientUnits="userSpaceOnUse">
<stop stop-color="#ED544E" stop-opacity="0"/>
<stop offset="0.809892" stop-color="#ED544E"/>
</linearGradient>
</defs>
</svg>
