<svg width="161" height="51" viewBox="0 0 161 51" fill="none" xmlns="http://www.w3.org/2000/svg">
<path d="M157.339 12.4793H160.423V50.198L0.528578 50.198V17.0716L5.1544 28.5512L6.9922 33.143H9.14674L13.4558 28.5512L16.4722 33.1431L25.5212 33.1435L30.2612 28.5513L32.8467 21.6624L36.6098 25.1073L40.0021 28.5512L41.0614 33.7986L43.216 33.143H45.8614L50.7956 17.0716L52.3375 21.6634L54.8046 17.0716L56.6549 25.1073L61.5891 11.3318L64.3646 17.0716H69.6072L75.1581 5.59205L78.5504 11.3318L83.0178 7.88751L88.4613 17.0712L91.961 0.999765L94.494 17.0712L111.389 23.9589L113.548 19.3671H115.707L120.641 12.4793H125.575L127.425 19.3671L134.827 5.59159L137.911 23.9589L139.453 17.0712H142.845L145.929 0.999765L149.013 14.7752L150.554 7.88751H154.564L157.339 12.4793Z" fill="url(#paint0_linear_3424_125)" fill-opacity="0.16"/>
<path d="M160.423 12.4793H157.339L154.564 7.88751H150.554L149.013 14.7752L145.929 0.999762L142.845 17.0712H139.453L137.911 23.9589L134.827 5.59158L127.425 19.3671L125.575 12.4793H120.641L115.707 19.3671H113.548L111.389 23.9589L94.494 17.0712L91.961 0.999762L88.4613 17.0712L83.0178 7.88751L78.5504 11.3318L75.1581 5.59204L69.6072 17.0716L64.3646 17.0716L61.5891 11.3318L56.6549 25.1073L54.8046 17.0716L52.3375 21.6634L50.7956 17.0716L45.8614 33.143H43.216L41.0614 33.7986L40.0021 28.5512L36.6098 25.1073L32.8467 21.6624L30.2612 28.5513L25.5212 33.1435L16.4722 33.1431L13.4558 28.5512L9.14674 33.143H6.9922L5.1544 28.5512L0.52858 17.0716" stroke="#66C87B" stroke-linecap="round"/>
<defs>
<linearGradient id="paint0_linear_3424_125" x1="80.4757" y1="50.198" x2="80.4757" y2="0.999765" gradientUnits="userSpaceOnUse">
<stop stop-color="#77B900" stop-opacity="0"/>
<stop offset="0.809892" stop-color="#77B900"/>
</linearGradient>
</defs>
</svg>
